<?xml version="1.0" standalone="no"?>
<!DOCTYPE svg PUBLIC "-//W3C//DTD SVG 20010904//EN"
 "http://www.w3.org/TR/2001/REC-SVG-20010904/DTD/svg10.dtd">
<svg version="1.0" xmlns="http://www.w3.org/2000/svg"
 width="1024.000000pt" height="1536.000000pt" viewBox="0 0 1024.000000 1536.000000"
 preserveAspectRatio="xMidYMid meet">

<g transform="translate(0.000000,1536.000000) scale(0.100000,-0.100000)"
fill="#000000" stroke="none">
<path d="M4783 12205 c-924 -119 -1723 -675 -2125 -1480 -181 -362 -270 -714
-284 -1130 -27 -785 246 -1476 806 -2035 147 -147 248 -230 420 -345 647 -433
1438 -568 2196 -375 569 145 1074 476 1462 960 438 546 644 1202 593 1885 -29
381 -113 696 -272 1015 -414 832 -1218 1397 -2139 1505 -154 18 -514 18 -657
0z m-1266 -881 c67 -51 571 -521 796 -743 71 -69 144 -148 164 -174 50 -67 73
-151 79 -282 8 -168 8 -169 215 -367 99 -95 184 -174 189 -176 5 -2 346 331
757 740 930 924 956 949 1023 983 46 23 62 27 109 22 93 -10 144 -67 143 -160
-1 -104 -68 -228 -251 -467 -332 -432 -613 -732 -855 -915 -124 -93 -196 -132
-306 -164 -74 -23 -76 -24 -215 -162 l-140 -139 145 -143 c457 -448 1109
-1085 1198 -1169 126 -119 152 -160 152 -246 0 -42 -6 -75 -19 -100 -54 -104
-175 -151 -270 -103 -23 12 -263 252 -626 628 -324 334 -645 664 -712 733
-124 125 -124 125 -142 104 -31 -38 -816 -869 -1051 -1113 -123 -128 -243
-245 -265 -259 -103 -65 -245 -21 -296 93 -23 50 -24 86 -3 156 15 52 37 76
695 734 l679 681 -192 190 c-218 216 -203 207 -388 219 -128 8 -186 26 -259
80 -75 55 -277 250 -375 360 -39 45 -165 186 -280 315 -234 264 -266 306 -273
360 -6 43 21 80 59 80 16 0 131 -108 398 -374 206 -205 385 -379 397 -385 50
-25 103 15 103 77 0 30 -20 54 -193 230 -321 328 -536 561 -543 587 -15 58 29
111 72 87 11 -6 186 -177 389 -381 355 -357 371 -371 408 -371 48 0 77 28 77
75 0 32 -25 60 -346 388 -190 195 -356 371 -370 391 -64 93 28 153 123 80z"/>
<path d="M772 5753 l3 -108 115 -1 c63 -1 128 -2 143 -3 l28 -1 -1 -502 -1
-503 113 0 113 0 3 502 2 502 55 6 c31 4 93 4 140 0 l85 -7 0 111 0 111 -400
0 -401 0 3 -107z"/>
<path d="M3615 5848 c-3 -7 -4 -283 -3 -613 l3 -600 118 -3 117 -3 0 198 0
198 39 45 39 45 119 -240 120 -240 114 -3 c63 -1 120 2 127 7 11 6 -23 81
-147 329 l-161 322 150 274 c82 151 150 279 150 285 0 7 -43 11 -127 11 l-128
0 -69 -133 c-37 -72 -103 -197 -145 -276 l-76 -143 -5 273 -5 274 -113 3 c-84
2 -114 -1 -117 -10z"/>
<path d="M5265 5848 c-3 -7 -4 -283 -3 -613 l3 -600 113 -3 112 -3 -2 613 -3
613 -108 3 c-80 2 -109 -1 -112 -10z"/>
<path d="M7215 5848 c-3 -7 -4 -283 -3 -613 l3 -600 110 0 110 0 5 156 5 156
32 36 32 37 98 -193 98 -192 109 -3 c61 -1 116 0 124 3 13 5 -48 130 -219 450
l-48 90 65 100 c60 92 154 252 154 261 0 2 -51 4 -113 4 l-113 0 -110 -176
-109 -176 -5 334 c-3 183 -7 334 -8 336 -1 1 -49 2 -107 2 -75 0 -107 -4 -110
-12z"/>
<path d="M8785 5848 c-3 -7 -4 -283 -3 -613 l3 -600 100 -3 c109 -3 125 4 125
56 0 24 0 24 29 -7 83 -89 250 -78 338 22 35 40 69 124 85 207 16 88 5 395
-16 454 -27 73 -61 122 -108 153 -34 23 -55 29 -118 31 -86 4 -121 -8 -177
-61 l-33 -31 0 202 0 202 -110 0 c-79 0 -112 -4 -115 -12z m391 -497 c50 -30
59 -72 59 -261 0 -181 -9 -226 -52 -260 -49 -39 -129 -17 -154 42 -10 24 -14
82 -14 218 0 174 1 187 22 221 37 59 85 73 139 40z"/>
<path d="M6693 5549 c-90 -9 -151 -37 -203 -96 -47 -53 -60 -94 -60 -183 1
-144 71 -213 276 -270 44 -12 96 -31 116 -41 65 -33 76 -83 29 -130 -25 -25
-37 -29 -84 -29 -68 0 -110 30 -124 88 l-9 37 -104 0 -105 0 -3 -42 c-6 -86
67 -192 161 -234 79 -35 249 -39 331 -9 68 26 128 77 159 134 18 33 22 57 21
126 0 162 -55 216 -279 277 -104 29 -139 47 -154 80 -17 36 -13 59 12 88 26
31 100 45 136 25 28 -14 61 -68 61 -97 0 -22 3 -23 111 -23 l111 0 -7 48 c-9
61 -45 140 -81 176 -62 62 -169 87 -311 75z"/>
<path d="M1745 5538 c-87 -32 -160 -113 -191 -213 -22 -67 -30 -285 -14 -382
13 -81 31 -132 63 -177 l20 -29 -26 -47 c-40 -71 -37 -80 27 -80 47 0 57 4 73
26 l19 26 62 -21 c156 -53 311 -1 389 128 50 84 66 176 60 349 -5 151 -25 241
-63 283 -14 15 -13 22 15 78 17 33 31 63 31 66 0 3 -29 5 -65 5 -56 0 -68 -3
-86 -24 l-21 -24 -36 21 c-29 17 -55 22 -132 24 -53 1 -108 -2 -125 -9z m186
-189 c16 -11 29 -25 29 -32 0 -17 -184 -347 -194 -347 -4 0 -6 66 -4 148 4
159 13 191 64 231 34 27 68 27 105 0z m74 -414 c-7 -49 -35 -98 -70 -121 -22
-15 -32 -15 -67 -5 -37 11 -40 15 -35 40 3 15 43 92 89 171 l83 145 3 -95 c2
-52 1 -113 -3 -135z"/>
<path d="M2671 5534 c-19 -8 -49 -30 -67 -50 l-34 -35 0 45 0 46 -110 0 -110
0 0 -455 0 -456 113 3 112 3 5 330 c5 300 7 332 24 357 39 58 139 53 165 -9 8
-20 12 -127 14 -353 l2 -325 115 0 115 0 5 331 c5 346 5 345 50 381 16 13 78
17 105 7 8 -4 23 -21 33 -38 14 -27 17 -71 18 -346 0 -173 2 -321 2 -327 2
-10 32 -13 112 -13 l110 0 0 358 c0 392 -4 430 -57 493 -15 17 -45 40 -68 50
-54 25 -166 25 -220 0 -42 -19 -105 -75 -105 -93 0 -6 -13 7 -29 29 -42 58
-100 83 -192 83 -42 -1 -88 -7 -108 -16z"/>
<path d="M4655 5537 c-92 -36 -149 -99 -187 -205 -16 -45 -22 -88 -25 -202 -6
-168 8 -247 59 -342 l31 -58 -27 -49 c-14 -27 -26 -54 -26 -60 0 -7 21 -11 54
-11 46 0 58 4 75 25 l19 26 64 -22 c172 -58 354 29 418 199 54 142 48 400 -12
521 l-31 65 26 51 c38 72 37 75 -35 75 -55 0 -65 -3 -83 -25 l-20 -26 -45 23
c-53 27 -204 36 -255 15z m193 -193 c17 -11 23 -22 20 -39 -6 -31 -179 -335
-191 -335 -5 0 -7 67 -5 153 3 137 5 156 25 188 37 59 92 71 151 33z m70 -354
c-3 -90 -6 -110 -26 -137 -31 -43 -81 -59 -121 -38 -17 8 -31 21 -31 27 0 10
41 85 134 243 39 67 41 69 44 40 2 -16 2 -77 0 -135z"/>
<path d="M5837 5536 c-137 -49 -219 -185 -233 -388 -8 -109 7 -234 38 -315 26
-71 103 -154 170 -184 45 -20 69 -24 163 -24 96 0 116 3 159 24 90 44 158 131
172 220 l7 41 -112 0 c-108 0 -111 0 -117 -24 -9 -38 -57 -77 -100 -82 -78
-10 -143 67 -144 169 l0 47 235 0 235 0 6 26 c11 41 -5 198 -26 267 -37 119
-96 186 -199 222 -54 19 -201 19 -254 1z m214 -204 c24 -26 59 -136 47 -147
-1 -2 -59 -5 -128 -7 l-125 -3 -3 38 c-4 48 30 122 66 142 43 24 111 13 143
-23z"/>
<path d="M8174 5534 c-88 -31 -155 -113 -174 -213 -16 -86 -11 -91 89 -91 47
0 91 4 97 8 6 4 14 25 17 47 9 54 45 85 100 85 73 0 117 -52 117 -139 0 -47 9
-43 -145 -60 -222 -25 -319 -127 -302 -318 14 -147 104 -233 244 -233 66 0
109 17 161 65 l41 36 6 -45 7 -46 103 0 102 0 -4 348 c-5 404 -9 429 -78 497
-30 30 -59 49 -96 59 -67 20 -228 20 -285 0z m244 -567 c-5 -90 -19 -121 -70
-151 -41 -25 -85 -20 -118 13 -53 52 -52 131 1 175 28 24 49 30 124 39 73 9
68 16 63 -76z"/>
</g>
</svg>
